<?xml version="1.0" encoding="UTF-8" standalone="no"?>
<svg
   version="1.0"
   width="1024pt"
   height="1024pt"
   viewBox="0 0 1024 1024"
   preserveAspectRatio="xMidYMid meet"
   id="svg14"
   sodipodi:docname="1bda3cb2f99aea7ed521184bd516c6a3.svg"
   xmlns:inkscape="http://www.inkscape.org/namespaces/inkscape"
   xmlns:sodipodi="http://sodipodi.sourceforge.net/DTD/sodipodi-0.dtd"
   xmlns="http://www.w3.org/2000/svg"
   xmlns:svg="http://www.w3.org/2000/svg">
  <defs
     id="defs18" />
  <sodipodi:namedview
     id="namedview16"
     pagecolor="#ffffff"
     bordercolor="#666666"
     borderopacity="1.0"
     inkscape:pageshadow="2"
     inkscape:pageopacity="0.0"
     inkscape:pagecheckerboard="0"
     inkscape:document-units="pt" />
  <metadata
     id="metadata2">
Created by potrace 1.16, written by Peter Selinger 2001-2019
</metadata>
  <g
     transform="matrix(0.1,0,0,-0.1,0,1024)"
     fill="#000000"
     stroke="none"
     id="g12">
    <path
       d="M 0,5120 V 0 h 5120 5120 v 5120 5120 H 5120 0 Z m 5950,2623 c 64,-43 164,-92 240,-118 62,-21 65,-24 73,-61 32,-146 52,-215 88,-297 95,-212 116,-310 106,-472 -33,-495 -329,-867 -820,-1030 -339,-112 -699,-112 -1045,1 -92,30 -290,134 -369,193 -205,154 -347,363 -413,608 -27,98 -38,337 -21,439 7,38 37,126 67,196 57,132 106,305 119,416 6,54 10,62 24,56 9,-3 89,-9 178,-12 174,-5 306,7 431,39 l 73,18 44,-33 c 24,-19 61,-40 82,-48 57,-20 269,-17 368,6 175,39 361,132 510,254 l 50,40 85,-82 c 47,-45 105,-96 130,-113 z M 3589,7189 c 17,-6 31,-14 31,-18 0,-4 -7,-52 -15,-107 -8,-54 -15,-155 -15,-223 v -124 l -47,7 c -71,9 -132,51 -162,111 -35,67 -37,199 -4,260 47,89 126,124 212,94 z m 3210,-18 c 105,-75 116,-295 18,-389 -34,-33 -102,-62 -146,-62 h -26 l -1,148 c -1,88 -8,179 -18,226 -9,44 -15,80 -13,81 1,1 16,7 32,13 45,17 118,9 154,-17 z M 4324,5575 c 38,-139 194,-328 337,-408 187,-104 491,-137 724,-77 254,64 472,264 530,486 8,31 16,59 19,61 6,6 124,-23 226,-57 418,-139 716,-404 905,-803 105,-223 154,-420 176,-707 29,-389 -43,-593 -239,-672 -54,-22 -72,-23 -339,-26 l -281,-3 -6,63 c -3,35 -13,214 -21,398 -8,184 -18,370 -21,412 -5,61 -3,79 7,82 108,32 173,78 212,150 21,39 22,56 25,307 l 3,266 -26,32 c -35,40 -90,43 -132,7 l -28,-24 -3,-243 c -3,-247 -7,-269 -42,-269 -37,0 -40,21 -43,269 l -2,243 -28,24 c -39,34 -95,33 -128,-2 -24,-25 -24,-28 -29,-271 -4,-220 -7,-247 -22,-257 -13,-8 -23,-8 -35,0 -16,10 -19,37 -23,257 l -5,247 -26,26 c -39,38 -94,36 -131,-5 l -28,-31 v -258 c 0,-249 1,-259 24,-307 32,-67 88,-120 153,-145 30,-11 59,-20 64,-20 8,0 9,-25 5,-77 -3,-43 -13,-233 -21,-423 -8,-190 -18,-369 -21,-397 l -5,-53 h -162 -162 v 73 c 0,63 -4,79 -27,114 -42,64 -92,83 -222,83 -108,0 -108,0 -102,23 4,12 10,50 13,85 6,60 9,66 58,116 44,43 55,62 65,108 21,95 -16,195 -92,247 -32,22 -36,30 -51,115 -28,145 -80,240 -196,356 -77,76 -114,104 -186,141 -188,97 -343,134 -570,133 -140,0 -174,-3 -266,-26 -206,-52 -353,-131 -474,-253 -113,-115 -181,-253 -187,-383 -3,-61 -5,-65 -54,-115 -99,-100 -99,-240 2,-332 33,-31 35,-36 38,-106 2,-41 6,-82 11,-91 6,-16 -1,-18 -80,-18 -60,0 -98,-5 -122,-17 -51,-24 -85,-81 -92,-156 l -6,-62 -51,47 c -109,102 -138,198 -137,458 0,358 59,627 197,905 146,294 359,515 635,659 133,69 188,91 326,132 153,46 149,47 169,-31 z m 346,-30 c 164,-41 245,-50 455,-49 210,0 290,10 485,59 52,13 96,23 97,21 2,-1 -14,-29 -35,-62 -51,-78 -128,-146 -216,-189 -117,-57 -181,-70 -346,-69 -129,1 -154,4 -225,27 -149,49 -270,143 -334,257 l -23,43 23,-7 c 13,-4 67,-17 119,-31 z m -110,-775 c 120,-15 222,-44 320,-93 145,-71 274,-217 305,-347 l 6,-25 -748,3 c -411,1 -753,4 -760,7 -9,3 -7,18 7,59 95,276 467,445 870,396 z m 674,-650 c 78,-18 123,-75 97,-124 -20,-37 -41,-37 -132,1 -116,49 -162,49 -259,0 -131,-64 -220,-67 -324,-8 -80,45 -117,47 -228,12 -52,-17 -108,-31 -123,-31 -15,0 -62,16 -105,35 -132,59 -241,56 -392,-14 -127,-58 -177,-60 -212,-9 -22,31 -20,62 7,93 47,55 38,54 867,54 425,0 782,-4 804,-9 z m -109,-602 c -13,-44 -62,-93 -120,-123 l -60,-30 -463,-3 c -488,-3 -543,1 -622,41 -45,23 -110,96 -110,123 0,12 100,14 691,14 h 690 z M 3362,2531 c 141,-36 248,-109 248,-168 0,-49 -87,-163 -125,-163 -7,0 -27,11 -46,25 -95,68 -128,80 -229,80 -84,0 -101,-3 -145,-27 -66,-35 -108,-80 -140,-151 -83,-181 -27,-417 119,-501 91,-53 227,-54 319,-4 l 42,23 3,78 3,77 h -91 c -83,0 -93,2 -115,25 -21,20 -25,34 -25,87 0,110 -4,108 231,108 267,0 249,16 249,-230 0,-207 -4,-222 -85,-302 -90,-88 -227,-138 -379,-138 -290,1 -501,165 -562,436 -23,104 -15,281 16,374 26,78 66,150 115,207 65,76 198,150 310,173 76,15 209,11 287,-9 z m 3040,8 c 69,-15 166,-59 201,-92 32,-30 36,-79 10,-117 -30,-46 -77,-90 -95,-90 -10,0 -46,15 -82,34 -147,78 -286,46 -286,-67 0,-62 42,-94 181,-142 204,-69 274,-117 321,-220 30,-69 30,-177 -1,-258 -43,-109 -157,-198 -289,-226 -161,-34 -376,13 -469,102 -47,45 -45,82 10,149 60,73 82,79 144,40 69,-44 126,-62 200,-62 105,0 163,37 163,105 0,62 -55,103 -200,150 -122,40 -198,80 -252,133 -61,59 -83,116 -82,207 5,252 244,413 526,354 z m -2326,-23 c 18,-14 19,-33 24,-388 l 5,-373 26,-56 c 30,-64 67,-94 132,-109 59,-13 137,3 177,36 15,14 39,46 52,72 23,46 23,54 28,425 6,444 -6,407 130,407 78,0 89,-2 109,-24 l 22,-23 -3,-404 c -3,-396 -4,-405 -26,-462 -80,-196 -332,-308 -571,-252 -138,33 -236,110 -294,233 l -32,67 -3,415 c -3,490 -14,450 122,450 55,0 89,-5 102,-14 z m 1619,-11 c 22,-21 25,-33 25,-93 0,-55 -4,-75 -21,-95 l -20,-27 -205,-2 -206,-3 v -109 -108 l 144,1 c 155,1 215,-8 235,-35 21,-29 17,-147 -6,-175 -18,-23 -23,-23 -192,-24 -96,0 -175,-3 -176,-7 -2,-5 -3,-55 -3,-113 v -105 h 204 205 l 20,-26 c 35,-44 26,-170 -13,-196 -6,-4 -152,-8 -323,-8 -300,0 -314,1 -333,20 -19,19 -20,33 -20,550 v 531 l 25,24 24,25 h 306 306 z m 1925,5 c 17,-17 20,-33 20,-100 0,-117 -4,-120 -170,-120 h -130 v -425 c 0,-445 -2,-470 -44,-481 -12,-3 -61,-4 -111,-2 -84,3 -90,5 -102,28 -10,19 -13,128 -13,453 v 427 h -134 -135 l -21,28 c -19,23 -21,37 -18,99 6,122 -27,113 440,113 385,0 399,-1 418,-20 z"
       id="path4" />
    <path
       d="m 4505,7228 c -41,-32 -55,-76 -55,-170 0,-121 34,-169 119,-170 86,-1 131,52 139,164 9,125 -41,198 -134,198 -27,0 -51,-7 -69,-22 z"
       id="path6" />
    <path
       d="m 5586,7229 c -53,-42 -75,-131 -56,-229 12,-64 49,-105 104,-115 49,-10 106,20 128,65 21,41 24,143 6,202 -25,85 -121,125 -182,77 z"
       id="path8" />
    <path
       d="m 4763,6606 c -17,-8 -39,-29 -48,-46 -22,-42 -8,-84 50,-148 165,-183 527,-189 705,-11 91,92 94,180 6,209 -44,14 -94,-5 -124,-47 -11,-16 -44,-42 -74,-59 -49,-27 -61,-29 -153,-29 -116,0 -158,16 -235,90 -52,51 -82,60 -127,41 z"
       id="path10" />
  </g>
</svg>
